# xmcd
#
# Track frame offsets:
#	150
#	13008
#	26557
#	41151
#	54631
#	68010
#	82052
#	94555
#	110655
#	124426
#	141051
#	157013
#	168742
#	186230
#	198469
#
# Disc length: 2828 seconds
#
# Revision: 0
# Processed by: cddbd v1.5.2PL0 Copyright (c) Steve Scherf et al.
# Submitted via: EasyCDDAExtractor 8.2.1.1
#
DISCID=da0b0a0f
DTITLE=RIO NEGRO E SOLIMÕES - ARRASTÃO
DYEAR=2008
DGENRE=Country
TTITLE0=VIDA LOUCA
TTITLE1=ALO, MEU CORAÇÃO
TTITLE2=MOIDO DE PAIXÃO
TTITLE3=SAÚDE E PAZ
TTITLE4=ARRASTÃO
TTITLE5=TRAZ MAIS UMA
TTITLE6=MISERENTA
TTITLE7=SÓ EU SEI
TTITLE8=VAI E VEM
TTITLE9=CHORA VIOLÃO
TTITLE10=NOSSO FILME
TTITLE11=LATINHA NO BICO
TTITLE12=NO SEU CORAÇÃO
TTITLE13=TÁ FICANDO BOM
TTITLE14=A FILA TA ANDANDO
EXTD=
EXTT0=
EXTT1=
EXTT2=
EXTT3=
EXTT4=
EXTT5=
EXTT6=
EXTT7=
EXTT8=
EXTT9=
EXTT10=
EXTT11=
EXTT12=
EXTT13=
EXTT14=
PLAYORDER=
